<svg xmlns="http://www.w3.org/2000/svg" version="1.1" xmlns:xlink="http://www.w3.org/1999/xlink" xmlns:svgjs="http://svgjs.dev/svgjs" width="1451" height="916" preserveAspectRatio="none" viewBox="0 0 1451 916"><g mask="url(&quot;#SvgjsMask1002&quot;)" fill="none"><rect width="1451" height="916" x="0" y="0" fill="url(&quot;#SvgjsLinearGradient1003&quot;)"></rect><path d="M1451 0L1281.25 0L1451 119.61z" fill="rgba(255, 255, 255, .1)"></path><path d="M1281.25 0L1451 119.61L1451 280.92L644.01 0z" fill="rgba(255, 255, 255, .075)"></path><path d="M644.01 0L1451 280.92L1451 344.44L536.69 0z" fill="rgba(255, 255, 255, .05)"></path><path d="M536.69 0L1451 344.44L1451 677.02L156.79000000000008 0z" fill="rgba(255, 255, 255, .025)"></path><path d="M0 916L532.77 916L0 639.9100000000001z" fill="rgba(0, 0, 0, .1)"></path><path d="M0 639.9100000000001L532.77 916L1021.23 916L0 494.9200000000001z" fill="rgba(0, 0, 0, .075)"></path><path d="M0 494.92L1021.23 916L1168.58 916L0 248.16000000000003z" fill="rgba(0, 0, 0, .05)"></path><path d="M0 248.16000000000008L1168.58 916L1306.8999999999999 916L0 209.20000000000007z" fill="rgba(0, 0, 0, .025)"></path></g><defs><mask id="SvgjsMask1002"><rect width="1451" height="916" fill="#ffffff"></rect></mask><linearGradient x1="0%" y1="50%" x2="100%" y2="50%" gradientUnits="userSpaceOnUse" id="SvgjsLinearGradient1003"><stop stop-color="rgba(0, 0, 0, 1)" offset="0.51"></stop><stop stop-color="rgba(0, 0, 0, 1)" offset="0.7"></stop><stop stop-color="rgba(0, 0, 0, 1)" offset="0.76"></stop><stop stop-color="rgba(0, 0, 0, 1)" offset="1"></stop></linearGradient></defs></svg>